<svg width="30" height="30" viewBox="0 0 30 30" fill="none" xmlns="http://www.w3.org/2000/svg">
    <path d="M15 6.10352e-05C6.72 6.10352e-05 0 6.72006 0 15.0001C0 23.2801 6.72 30.0001 15 30.0001H22.5V27.0001H15C8.49 27.0001 3 21.5101 3 15.0001C3 8.49006 8.49 3.00006 15 3.00006C21.51 3.00006 27 8.49006 27 15.0001V17.1451C27 18.3301 25.935 19.5001 24.75 19.5001C23.565 19.5001 22.5 18.3301 22.5 17.1451V15.0001C22.5 10.8601 19.14 7.50006 15 7.50006C10.86 7.50006 7.5 10.8601 7.5 15.0001C7.5 19.1401 10.86 22.5001 15 22.5001C17.07 22.5001 18.96 21.6601 20.31 20.2951C21.285 21.6301 22.965 22.5001 24.75 22.5001C27.705 22.5001 30 20.1001 30 17.1451V15.0001C30 6.72006 23.28 6.10352e-05 15 6.10352e-05ZM15 19.5001C12.51 19.5001 10.5 17.4901 10.5 15.0001C10.5 12.5101 12.51 10.5001 15 10.5001C17.49 10.5001 19.5 12.5101 19.5 15.0001C19.5 17.4901 17.49 19.5001 15 19.5001Z" fill="#00BFA5"/>
</svg>
