<svg width="28" height="28" viewBox="0 0 28 28" fill="none" xmlns="http://www.w3.org/2000/svg">
    <path d="M26.015 19.07C24.17 19.07 22.385 18.77 20.72 18.23C20.195 18.05 19.61 18.185 19.205 18.59L16.85 21.545C12.605 19.52 8.63 15.695 6.515 11.3L9.44 8.81C9.845 8.39 9.965 7.805 9.8 7.28C9.245 5.615 8.96 3.83 8.96 1.985C8.96 1.175 8.285 0.5 7.475 0.5H2.285C1.475 0.5 0.5 0.86 0.5 1.985C0.5 15.92 12.095 27.5 26.015 27.5C27.08 27.5 27.5 26.555 27.5 25.73V20.555C27.5 19.745 26.825 19.07 26.015 19.07Z" fill="#00BFA5"/>
</svg>
