<svg width="28" height="31" viewBox="0 0 28 31" fill="none" xmlns="http://www.w3.org/2000/svg">
    <path d="M24.5 3.49994H18.23C17.6 1.75994 15.95 0.499939 14 0.499939C12.05 0.499939 10.4 1.75994 9.77 3.49994H3.5C1.85 3.49994 0.5 4.84994 0.5 6.49994V27.4999C0.5 29.1499 1.85 30.4999 3.5 30.4999H24.5C26.15 30.4999 27.5 29.1499 27.5 27.4999V6.49994C27.5 4.84994 26.15 3.49994 24.5 3.49994ZM14 3.49994C14.825 3.49994 15.5 4.17494 15.5 4.99994C15.5 5.82494 14.825 6.49994 14 6.49994C13.175 6.49994 12.5 5.82494 12.5 4.99994C12.5 4.17494 13.175 3.49994 14 3.49994ZM14 9.49994C16.49 9.49994 18.5 11.5099 18.5 13.9999C18.5 16.4899 16.49 18.4999 14 18.4999C11.51 18.4999 9.5 16.4899 9.5 13.9999C9.5 11.5099 11.51 9.49994 14 9.49994ZM23 27.4999H5V25.3999C5 22.3999 11 20.7499 14 20.7499C17 20.7499 23 22.3999 23 25.3999V27.4999Z" fill="#00BFA5"/>
</svg>
